<?xml version="1.0" encoding="utf-8"?>
<!-- Uploaded to SVGRepo https://www.svgrepo.com -->
<svg version="1.2" baseProfile="tiny" id="pal-anna-vital"
	 xmlns="http://www.w3.org/2000/svg" xmlns:xlink="http://www.w3.org/1999/xlink" x="0px" y="0px" viewBox="0 0 256 256"
	 xml:space="preserve">
<path id="XMLID_4_" d="M142.4,42.9c2-4.3,6.6-8.3,14.6-11.5V14.6l8.7,13.8c2.9-0.9,6.3-1.6,9.3-2.2V9l9.8,15.8
	c1.7-0.2,3.2-0.3,5.2-0.4V9l9.4,15.2c8.6,0.2,17.3,1.4,25.3,3.9C220.9,16,200.4,5,196.9,4.3c-35.7-10.9-68.8,20-69.4,28.3
	C115.5-1,60.6,1,34.9,30.7c20.1-5.2,76.4-2.8,80.4,15.5c-12.6-2.8-60.7-31.6-87,48.5c52.3-30.9,76.1-42.3,81.9-38.2
	c-39.1,13.8-25.6,52.1-25.6,52.1s13.7-32.1,30.1-35l2.8,0.2c-15.6,60.8-22.5,112-3.8,174H63v8h124v-8h-42.5
	c-24.1-57-20.3-111-7.6-173.1l2.6,0.2c8.9,4.9,26.5,33.6,29.8,42.9c6.3-22.6-0.5-42.7-19.1-57.1c2.8-1.6,8.9-1.5,16.5-0.3l2.5-14
	l7.3,15.8l-0.2,0c2.9,0.6,5.8,1.3,8.8,2.1l4.5-18l4.8,20.6c2.3,0.7,4.5,1.3,6.6,2l4.2-16.7l4.6,19.7c6.9,2.4,12.3,4.7,14.8,6.1
	C223.3,61.5,201.4,21,142.4,42.9z"/>
</svg>
